<svg xmlns="http://www.w3.org/2000/svg" fill="none" viewBox="0 0 32 32"><path fill="url(#paint0_linear_82_506)" d="M0 0h32v32h-32z"/><path fill="#fff" d="M15.85 25.87q-1.6 0-2.79-.5a3.5 3.5 0 0 1-1.8-1.74q-.6-1.25-.6-3.53v-1.12h3.22v1.38q0 1.39.27 2.15.26.75.72 1.05.45.27 1.05.26.95 0 1.5-.62.6-.66.6-2.44 0-1.32-.4-1.98-.39-.66-1.24-1.05-.82-.43-2.14-.96a8 8 0 0 1-1.87-1.15q-.79-.66-1.18-1.68a7 7 0 0 1-.4-2.54q0-1.84.47-3 .49-1.18 1.64-1.7 1.15-.57 3.08-.57 2.5 0 3.81 1.16 1.31 1.11 1.31 3.3v2.26h-3.08v-1.35q0-1.5-.5-2.17-.45-.7-1.5-.7-1.09 0-1.58.67-.46.62-.46 2 0 1.2.46 1.85.46.63 1.18.99.75.36 1.55.66 1.47.56 2.4 1.15.9.6 1.34 1.58.42 1 .42 2.8a7 7 0 0 1-.69 3.3 3.8 3.8 0 0 1-1.9 1.71q-1.2.53-2.89.53"/><defs><linearGradient id="paint0_linear_82_506" x1="6.32768" x2="33.8513" y1="9.62149e-06" y2="3.40621" gradientUnits="userSpaceOnUse"><stop stop-color="#ED0233"/><stop offset="1" stop-color="#003EB7"/></linearGradient></defs></svg>