<svg xmlns="http://www.w3.org/2000/svg" xmlns:xlink="http://www.w3.org/1999/xlink"><symbol id="sprite-currency" fill="currentColor" viewBox="0 0 24 34"><path fill="#102654" fill-rule="evenodd" d="M14.8 5.21h-6.8v8.65h6.8c2.43 0 4.4-1.94 4.4-4.32a4.36 4.36 0 0 0-4.4-4.33m-11.6-4.71v18.07h11.6c5.08 0 9.2-4.04 9.2-9.03s-4.12-9.04-9.2-9.04z" clip-rule="evenodd"/><path fill="#102654" fill-rule="evenodd" d="M0 13.86h4.8v4.71h-4.8z" clip-rule="evenodd"/><path fill="#102654" fill-rule="evenodd" d="M2.93 22.75v-8.1h4.8v8.1h9.07v4.72h-9.07v6.03h-4.8v-6.03h-2.93v-4.72z" clip-rule="evenodd"/></symbol><use xlink:href="#sprite-currency" width="24" height="34"/><view id="sprite-currency-view" viewBox="0 0 24 34"/><symbol id="sprite-logo" fill="none" viewBox="0 0 410 404"><path fill="url(#a)" d="m399.64 59.53-184 329.02a10 10 0 0 1-17.41.07l-187.65-329.06a10 10 0 0 1 10.45-14.8l184.2 32.92a10 10 0 0 0 3.55 0l180.34-32.87a10 10 0 0 1 10.52 14.72"/><path fill="url(#b)" d="m292.96 1.57-136.16 26.69a5 5 0 0 0-4.03 4.6l-8.38 141.47a5 5 0 0 0 6.12 5.17l37.91-8.75a5 5 0 0 1 6.02 5.87l-11.26 55.15a5 5 0 0 0 6.35 5.79l23.42-7.11a5 5 0 0 1 6.35 5.8l-17.9 86.62c-1.12 5.42 6.09 8.38 9.1 3.73l2-3.1 110.95-221.43a5 5 0 0 0-5.41-7.15l-39.03 7.53a5 5 0 0 1-5.75-6.3l25.47-88.28a5 5 0 0 0-5.77-6.3"/><defs><linearGradient id="a" x1="6" x2="235" y1="33" y2="344" gradientUnits="userSpaceOnUse"><stop stop-color="#41D1FF"/><stop offset="1" stop-color="#BD34FE"/></linearGradient><linearGradient id="b" x1="194.651" x2="236.076" y1="8.818" y2="292.989" gradientUnits="userSpaceOnUse"><stop stop-color="#FFEA83"/><stop offset=".083" stop-color="#FFDD35"/><stop offset="1" stop-color="#FFA800"/></linearGradient></defs></symbol><use xlink:href="#sprite-logo" width="410" height="404" y="34"/><view id="sprite-logo-view" viewBox="0 34 410 404"/><symbol id="sprite-logo_desctop" fill="none" viewBox="0 0 130 26"><path fill="#fff" d="M112.98.37h3.61l4.18 17.3 4.16-17.3h3.19l-5.82 25.28h-3.08zm-1.46 0h3.44l.54 16.67v8.61h-3.98zm15.02 0h3.46v25.28h-3.96v-8.61zm-27.61 0 3.12 11.39 3.1-11.4h4.47l-5.5 16.1v9.2h-4.15v-9.2l-5.51-16.1zm-5 12v10.42q-.43.57-1.27 1.33-.83.75-2.18 1.32-1.34.56-3.26.56-1.7 0-3.1-.66-1.37-.66-2.37-2-.98-1.35-1.5-3.37t-.52-4.8v-4.31q0-2.75.5-4.78.5-2.05 1.45-3.4t2.28-2.02 3-.66q2.31 0 3.79.96 1.49.95 2.24 2.83.78 1.87.93 4.6h-3.97q-.1-1.6-.44-2.5-.32-.9-.91-1.29-.6-.4-1.53-.4-.82 0-1.42.37-.6.34-1.02 1.14t-.6 2.05-.2 3.06v4.34q0 1.8.23 3.06t.66 2.07q.45.8 1.12 1.16.7.35 1.62.35.74 0 1.2-.2t.7-.4l.47-.34v-4.66h-2.93v-3.83zm-30.82-12h6.56q2.05 0 3.5.86 1.45.87 2.22 2.57t.77 4.2q0 2.06-.45 3.51t-1.27 2.42a6 6 0 0 1-1.99 1.53l-1.25.92h-5.32l-.02-4.22h3.7q.84 0 1.4-.45.55-.47.82-1.3.28-.86.28-1.99 0-1.2-.25-2.05-.24-.86-.77-1.32-.52-.47-1.37-.46h-2.44v21.06h-4.12zm9.29 25.28-3.75-11.27 4.31-.02 3.84 11.05v.24zm-12.71-4.2v4.2h-8.9v-4.2zm-7.62-21.09v25.3h-4.12v-25.3zm6.42 10.25v4.08h-7.7v-4.08zm1.17-10.24v4.22h-8.87v-4.22zm-20.09 16.37h-4.19v-4.22h4.2q.86 0 1.41-.48.56-.49.82-1.34a7 7 0 0 0 .25-1.95q0-1.09-.27-2.03-.25-.95-.8-1.54-.53-.6-1.42-.6h-2.86v21.07h-4.1v-25.28h6.96q2.07 0 3.56 1.07 1.49 1.08 2.27 2.97.8 1.88.8 4.3 0 2.46-.8 4.26-.78 1.8-2.27 2.78t-3.56 1m-14.22-16.39h4.1v17.37q0 2.92-.87 4.76-.85 1.82-2.37 2.68-1.52.83-3.47.83-1.97 0-3.5-.83-1.53-.86-2.4-2.68-.83-1.84-.83-4.76v-17.36h4.1v17.36q0 1.65.3 2.54.3.88.88 1.21t1.45.32q.87 0 1.43-.32.58-.33.87-1.21.31-.89.31-2.54zm-16.08 18.64q0-.68-.1-1.23a3 3 0 0 0-.42-1.03q-.3-.47-.9-.93-.6-.48-1.55-.98a34 34 0 0 1-2.21-1.25 11 11 0 0 1-1.93-1.56 7 7 0 0 1-1.36-2.08q-.5-1.22-.5-2.85 0-1.6.47-2.9.48-1.3 1.35-2.23a6 6 0 0 1 2.04-1.44q1.18-.5 2.63-.5 1.97 0 3.4 1 1.45 1.01 2.23 2.77.8 1.75.8 4.03h-4.1q0-1.08-.25-1.9-.24-.83-.78-1.3-.53-.47-1.37-.47-.79 0-1.31.4-.5.38-.76 1.06-.24.66-.24 1.5 0 .62.24 1.12.25.49.69.89.44.38 1.03.75.6.36 1.32.7 1.39.68 2.46 1.5a8 8 0 0 1 1.78 1.8q.72 1 1.08 2.25t.37 2.85q0 1.58-.45 2.88a6 6 0 0 1-1.28 2.22 6 6 0 0 1-2.04 1.43q-1.18.5-2.64.5-1.42 0-2.68-.49a6 6 0 0 1-2.24-1.5q-.95-1.03-1.5-2.6-.55-1.58-.55-3.73h4.12q0 1.15.18 1.96.18.8.56 1.29.38.47.93.71.56.23 1.28.23.81 0 1.3-.39.48-.38.7-1.02.2-.64.2-1.46"/></symbol><use xlink:href="#sprite-logo_desctop" width="130" height="26" y="438"/><view id="sprite-logo_desctop-view" viewBox="0 438 130 26"/><symbol id="sprite-logo_mobile" fill="none" viewBox="0 0 100 20"><path fill="#fff" d="M86.91.28h2.78l3.2 13.3 3.2-13.3h2.46l-4.47 19.45h-2.37zm-1.12 0h2.64l.41 12.83v6.62h-3.06zm11.55 0h2.66v19.45h-3.05v-6.62zm-21.24 0 2.4 8.77 2.38-8.77h3.45l-4.24 12.39v7.06h-3.19v-7.07l-4.24-12.38zm-3.84 9.23v8.02q-.34.44-.99 1.03-.63.57-1.67 1.01-1.03.43-2.5.43-1.32 0-2.39-.5-1.06-.51-1.82-1.54-.76-1.05-1.16-2.6-.4-1.56-.4-3.7v-3.31q0-2.11.38-3.67.39-1.58 1.12-2.62t1.75-1.55q1.03-.51 2.32-.51 1.77 0 2.9.74 1.15.73 1.74 2.17.59 1.45.7 3.54h-3.05q-.08-1.23-.34-1.92-.24-.7-.7-.99t-1.18-.3q-.62 0-1.09.27-.46.27-.78.89-.31.61-.46 1.57t-.15 2.35v3.34q0 1.38.17 2.36.17.97.5 1.59.35.61.87.89.53.27 1.25.27.57 0 .91-.15t.55-.3q.22-.18.36-.27v-3.58h-2.26v-2.96zm-23.71-9.23h5.04q1.58 0 2.7.67 1.1.67 1.7 1.98.6 1.3.6 3.23 0 1.57-.35 2.7-.34 1.1-.98 1.85-.64.74-1.53 1.18l-.96.7h-4.1v-3.24h2.84q.65 0 1.07-.35.43-.36.64-1 .21-.65.21-1.52 0-.92-.2-1.58-.18-.67-.59-1.01-.4-.36-1.05-.36h-1.88v16.2h-3.16zm7.14 19.45-2.88-8.67 3.31-.01 2.95 8.5v.18zm-9.78-3.23v3.23h-6.84v-3.23zm-5.86-16.22v19.45h-3.16v-19.45zm4.94 7.88v3.14h-5.92v-3.14zm.9-7.88v3.25h-6.82v-3.25zm-15.45 12.6h-3.22v-3.25h3.22q.67 0 1.1-.37.42-.38.62-1.03.2-.67.2-1.5a6 6 0 0 0-.21-1.56q-.2-.74-.62-1.19-.4-.45-1.09-.45h-2.2v16.2h-3.16v-19.45h5.36q1.59 0 2.74.83 1.14.83 1.75 2.28t.61 3.32-.61 3.27q-.61 1.38-1.75 2.14t-2.74.76m-10.94-12.6h3.16v13.36q0 2.24-.67 3.66-.66 1.4-1.83 2.06-1.17.64-2.67.64-1.51 0-2.7-.64-1.17-.66-1.83-2.06-.65-1.41-.65-3.66v-13.36h3.16v13.36q0 1.27.23 1.95t.68.93q.45.24 1.11.24t1.1-.24q.44-.25.67-.93t.24-1.95zm-12.37 14.34q0-.53-.07-.95a2 2 0 0 0-.33-.8 3 3 0 0 0-.7-.71 8 8 0 0 0-1.19-.75 26 26 0 0 1-1.7-.96 8 8 0 0 1-1.47-1.2 5 5 0 0 1-1.05-1.6q-.38-.94-.38-2.2 0-1.23.36-2.23a5 5 0 0 1 1.03-1.71q.67-.72 1.57-1.11.9-.38 2.02-.39 1.51 0 2.62.78 1.1.77 1.72 2.12t.61 3.1h-3.15q0-.82-.2-1.45-.18-.64-.6-1-.4-.36-1.05-.36-.6 0-1 .3t-.6.82a3 3 0 0 0-.18 1.15q0 .48.19.86.2.38.53.69.33.29.79.57t1.01.55q1.07.52 1.9 1.15.82.61 1.37 1.39.55.76.83 1.72t.28 2.19-.34 2.22a5 5 0 0 1-.99 1.7 4.4 4.4 0 0 1-1.57 1.1q-.9.39-2.03.39a6 6 0 0 1-2.06-.37 5 5 0 0 1-1.72-1.17q-.74-.79-1.16-1.99-.42-1.21-.42-2.87h3.17q0 .88.14 1.51.14.61.43.99.3.36.71.55.44.17.99.17.62 0 1-.3.37-.29.53-.78t.16-1.13"/></symbol><use xlink:href="#sprite-logo_mobile" width="100" height="20" y="464"/><view id="sprite-logo_mobile-view" viewBox="0 464 100 20"/><symbol id="sprite-logo_tablet" fill="none" viewBox="0 0 110 22"><path fill="#fff" d="M95.6.3h3.06l3.53 14.65 3.52-14.64h2.7l-4.93 21.4h-2.6zm-1.24 0h2.92l.45 14.12v7.29h-3.37zm12.71 0h2.93v21.4h-3.35v-7.28zm-23.36 0 2.64 9.65 2.62-9.64h3.79l-4.66 13.62v7.78h-3.51v-7.78l-4.66-13.62zm-4.22 10.16v8.82q-.37.49-1.09 1.13-.7.63-1.84 1.12-1.13.47-2.76.47-1.44 0-2.61-.56t-2.01-1.69q-.84-1.15-1.28-2.85-.44-1.72-.44-4.07v-3.64q0-2.33.42-4.05.43-1.73 1.24-2.88.8-1.14 1.92-1.7 1.13-.56 2.55-.56 1.95 0 3.2.8 1.26.82 1.9 2.4.65 1.6.78 3.9h-3.36q-.08-1.35-.37-2.12-.27-.76-.77-1.09t-1.3-.33q-.69 0-1.2.3t-.86.97-.5 1.74q-.17 1.06-.17 2.59v3.67q0 1.51.19 2.59t.56 1.74.95.99q.58.3 1.36.3.63 0 1.01-.17.39-.16.61-.34.24-.19.4-.29v-3.94h-2.5v-3.25zm-26.09-10.15h5.55q1.74 0 2.96.73 1.23.74 1.88 2.18t.66 3.55q0 1.74-.38 2.97-.38 1.22-1.08 2.05a5 5 0 0 1-1.68 1.29l-1.06.78h-4.5l-.02-3.57h3.13q.71 0 1.18-.39.47-.4.7-1.1.24-.72.24-1.67 0-1.02-.22-1.74-.2-.73-.65-1.11-.44-.4-1.16-.4h-2.07v17.83h-3.48zm7.86 21.4-3.17-9.54 3.65-.02 3.24 9.35v.2zm-10.76-3.56v3.56h-7.52v-3.56zm-6.44-17.84v21.4h-3.49v-21.4zm5.43 8.67v3.45h-6.51v-3.45zm.99-8.67v3.57h-7.5v-3.57zm-17 13.86h-3.54v-3.57h3.54q.74 0 1.2-.42.48-.4.7-1.13a6 6 0 0 0 .2-1.64 6 6 0 0 0-.22-1.72q-.21-.81-.67-1.31t-1.2-.5h-2.43v17.83h-3.47v-21.4h5.9q1.74 0 3 .91t1.93 2.51.68 3.65q0 2.07-.68 3.6-.67 1.51-1.93 2.35t-3 .84m-12.04-13.86h3.47v14.7q0 2.46-.73 4.02-.73 1.54-2.01 2.26-1.29.71-2.94.71-1.67 0-2.96-.7-1.3-.73-2.02-2.27-.72-1.56-.72-4.03v-14.7h3.48v14.7q0 1.4.25 2.15.26.75.74 1.03.5.26 1.23.26.74 0 1.21-.26.49-.28.74-1.03.26-.75.26-2.14zm-13.6 15.77q0-.58-.09-1.05a2 2 0 0 0-.35-.86q-.26-.4-.78-.8a9 9 0 0 0-1.3-.82 29 29 0 0 1-1.87-1.06 9 9 0 0 1-1.63-1.32 6 6 0 0 1-1.15-1.76q-.42-1.03-.42-2.41 0-1.36.4-2.46t1.14-1.88a5 5 0 0 1 1.72-1.22q1-.42 2.22-.42 1.67 0 2.88.85 1.23.85 1.9 2.33.67 1.49.67 3.41h-3.47q0-.9-.22-1.6-.2-.7-.65-1.1t-1.17-.4q-.66 0-1.1.34a2 2 0 0 0-.64.9 4 4 0 0 0-.2 1.26q0 .53.2.96.21.4.58.75.37.32.87.63.5.3 1.11.6 1.18.57 2.09 1.26a7 7 0 0 1 1.5 1.53q.61.84.92 1.9t.31 2.4-.38 2.45a5 5 0 0 1-1.08 1.88q-.72.78-1.73 1.2-1 .43-2.23.43-1.2 0-2.27-.41a5 5 0 0 1-1.9-1.28q-.8-.87-1.27-2.19-.46-1.34-.46-3.16h3.48q0 .97.16 1.66.15.68.47 1.09.32.4.79.6t1.08.2q.7 0 1.1-.33.41-.32.59-.87.18-.54.18-1.23"/></symbol><use xlink:href="#sprite-logo_tablet" width="110" height="22" y="484"/><view id="sprite-logo_tablet-view" viewBox="0 484 110 22"/><symbol id="sprite-minus" fill="none" viewBox="0 0 14 2"><path stroke="#fff" d="M14 1h-14"/></symbol><use xlink:href="#sprite-minus" width="14" height="2" y="506"/><view id="sprite-minus-view" viewBox="0 506 14 2"/><symbol id="sprite-ok" fill="none" viewBox="0 0 10 17"><path fill="#030A1A" d="M4.68 2.89c.9 0 1.63.75 1.63 1.68s-.73 1.68-1.63 1.68-1.63-.75-1.63-1.68.73-1.68 1.63-1.68m0 5.74a4 4 0 0 0 3.94-4.06 4 4 0 0 0-3.94-4.06 4 4 0 0 0-3.93 4.06 4 4 0 0 0 3.93 4.06m1.6 3.31a7 7 0 0 0 2.28-.97c.53-.35.7-1.09.36-1.64a1.13 1.13 0 0 0-1.6-.38 4.9 4.9 0 0 1-5.29 0 1.13 1.13 0 0 0-1.59.38 1.2 1.2 0 0 0 .37 1.64q1.07.69 2.28.97l-2.2 2.27a1.2 1.2 0 0 0 0 1.68 1.14 1.14 0 0 0 1.63 0l2.16-2.23 2.16 2.23c.45.47 1.18.47 1.63 0s.45-1.21 0-1.68z"/></symbol><use xlink:href="#sprite-ok" width="10" height="17" y="508"/><view id="sprite-ok-view" viewBox="0 508 10 17"/><symbol id="sprite-player_button" fill="none" viewBox="0 0 9 12"><path fill="#fff" d="m9 6-9 5.2v-10.4z"/></symbol><use xlink:href="#sprite-player_button" width="9" height="12" y="525"/><view id="sprite-player_button-view" viewBox="0 525 9 12"/><symbol id="sprite-plus" fill="currentColor" viewBox="0 0 14 14"><path stroke="#1C3374" d="M7 0v7m0 7v-7m0 0h7m-7 0h-7"/></symbol><use xlink:href="#sprite-plus" width="14" height="14" y="537"/><view id="sprite-plus-view" viewBox="0 537 14 14"/><symbol id="sprite-polygon" fill="none" viewBox="0 0 9 12"><path fill="#fff" d="m9 6-9 5.2v-10.4z"/></symbol><use xlink:href="#sprite-polygon" width="9" height="12" y="551"/><view id="sprite-polygon-view" viewBox="0 551 9 12"/><symbol id="sprite-reddit" fill="none" viewBox="0 0 15 15"><path fill="#030A1A" d="M8.85.56c-.44 0-.86.22-1.13.55s-.42.72-.52 1.14a10 10 0 0 0-.24 2.1 7 7 0 0 0-3.33 1.02 2 2 0 0 0-1.28-.5c-.5 0-.98.23-1.33.67-.68.85-.6 2.24.18 3.06a4 4 0 0 0-.08.78c0 2.8 2.86 5.06 6.38 5.06s6.38-2.26 6.38-5.06q0-.39-.08-.78c.78-.82.86-2.21.18-3.06a1.7 1.7 0 0 0-1.33-.66 2 2 0 0 0-1.28.49 7 7 0 0 0-3.31-1.03 8 8 0 0 1 .18-1.75q.12-.46.27-.64c.1-.13.17-.18.34-.18.36 0 .4.12.63.4q.14.23.44.5c.2.17.5.32.82.32v-1.22c-.09 0-.1 0-.17-.05l-.27-.35c-.25-.32-.73-.81-1.45-.81m3.51.11c-.84 0-1.52.77-1.52 1.71 0 .95.68 1.71 1.52 1.71s1.52-.76 1.52-1.7c0-.95-.68-1.72-1.52-1.72m0 .6c.54 0 .98.5.98 1.11s-.44 1.1-.98 1.1-.98-.49-.98-1.1.44-1.1.98-1.1m-4.86 4.01c3 0 5.52 1.88 5.52 4.1s-2.53 4.08-5.52 4.08-5.52-1.87-5.52-4.09 2.53-4.09 5.52-4.09m-5.13.56q.22 0 .45.11a5 5 0 0 0-1.26 1.6c-.2-.47-.15-1.06.1-1.37a1 1 0 0 1 .7-.34m10.27 0a1 1 0 0 1 .71.34c.25.31.3.9.1 1.37a5 5 0 0 0-1.26-1.6q.23-.1.45-.11m-7.3 1.52c-.53 0-.97.5-.97 1.1s.44 1.1.98 1.1.98-.5.98-1.1-.44-1.1-.98-1.1m4.32 0c-.54 0-.98.5-.98 1.1s.44 1.1.98 1.1.98-.5.98-1.1-.44-1.1-.98-1.1m-4.85 3.75c.35.8 1.41 1.58 2.69 1.58s2.36-.78 2.7-1.58c-.62.45-1.6.76-2.7.76s-2.06-.31-2.69-.76"/></symbol><use xlink:href="#sprite-reddit" width="15" height="15" y="563"/><view id="sprite-reddit-view" viewBox="0 563 15 15"/><symbol id="sprite-slider-button" fill="none" viewBox="0 0 18 32"><path stroke="currentColor" d="m1 0 16 16-16 16"/></symbol><use xlink:href="#sprite-slider-button" width="18" height="32" y="578"/><view id="sprite-slider-button-view" viewBox="0 578 18 32"/><symbol id="sprite-user" fill="none" viewBox="0 0 18 20"><path stroke="#163152" stroke-linecap="square" stroke-linejoin="round" d="M15.67 19h-13.34c-.73 0-1.33-.55-1.33-1.23a4.9 4.9 0 0 1 3.43-4.58l.41-.14a12.8 12.8 0 0 1 8.32 0l.4.14a4.9 4.9 0 0 1 3.44 4.58c0 .68-.6 1.23-1.33 1.23Zm-8.7-9.6a4.8 4.8 0 0 0 4.06 0 4.2 4.2 0 0 0 2.32-2.8l.08-.31a4.1 4.1 0 0 0-.84-3.54l-.12-.14c-.82-1.01-2.1-1.61-3.47-1.61s-2.65.6-3.47 1.6l-.12.15a4.1 4.1 0 0 0-.84 3.54l.08.32a4.2 4.2 0 0 0 2.32 2.8Z"/></symbol><use xlink:href="#sprite-user" width="18" height="20" y="610"/><view id="sprite-user-view" viewBox="0 610 18 20"/><symbol id="sprite-vk" fill="none" viewBox="0 0 13 8"><path fill="#030A1A" d="M7.72 6.05c.45-.14 1.01.95 1.62 1.36.45.32.8.25.8.25l1.6-.02s.84-.05.45-.72c-.04-.06-.24-.5-1.2-1.4-1-.95-.87-.8.34-2.43q1.1-1.48.94-1.87c-.08-.25-.63-.18-.63-.18l-1.8.01q-.29-.01-.4.24s-.3.77-.67 1.43c-.8 1.38-1.13 1.45-1.26 1.37-.31-.2-.23-.8-.23-1.24 0-1.34.2-1.9-.4-2.04a3 3 0 0 0-.84-.09c-.65 0-1.2 0-1.5.16-.2.1-.37.33-.27.34.12.02.39.07.53.27.19.26.18.83.18.83s.11 1.58-.25 1.77c-.24.14-.58-.14-1.3-1.4-.36-.64-.64-1.35-.64-1.35s-.05-.13-.15-.2a1 1 0 0 0-.28-.11h-1.72s-.26.02-.35.13 0 .31 0 .31 1.34 3.19 2.87 4.79c1.4 1.47 2.98 1.38 2.98 1.38h.72s.22-.03.33-.15c.1-.1.1-.32.1-.32s-.02-.98.43-1.12"/></symbol><use xlink:href="#sprite-vk" width="13" height="8" y="630"/><view id="sprite-vk-view" viewBox="0 630 13 8"/></svg>